<?xml version="1.0" encoding="UTF-8"?>
<svg version="1.1" xmlns="http://www.w3.org/2000/svg" width="142" height="131">
<path d="M0 0 C46.86 0 93.72 0 142 0 C142 43.23 142 86.46 142 131 C95.14 131 48.28 131 0 131 C0 87.77 0 44.54 0 0 Z " fill="#FCFCFB" transform="translate(0,0)"/>
<path d="M0 0 C46.86 0 93.72 0 142 0 C142 43.23 142 86.46 142 131 C95.14 131 48.28 131 0 131 C0 87.77 0 44.54 0 0 Z M29.125 33.5625 C20.03804572 44.38516464 15.82228958 56.29005247 15.8125 70.25 C15.80025391 71.15363281 15.78800781 72.05726562 15.77539062 72.98828125 C15.76249696 78.96234585 16.50618998 84.21370032 18 90 C15.03 91.65 12.06 93.3 9 95 C12.40931897 96.13643966 13.00335456 95.86747764 16.1875 94.5625 C16.90292969 94.27503906 17.61835938 93.98757812 18.35546875 93.69140625 C19.16951172 93.34916016 19.16951172 93.34916016 20 93 C20.42410156 93.78503906 20.84820312 94.57007812 21.28515625 95.37890625 C29.38301911 109.8838694 39.97003504 118.16762807 56 123 C68.85773548 126.63579845 84.38315979 125.1220798 96.20361328 119.01416016 C110.84955981 110.74570924 119.97577473 98.61073048 124.74609375 82.4765625 C127.25122222 71.7995322 126.53829582 62.06764347 122.875 51.77734375 C122 49 122 49 122 45 C126.29 43.02 130.58 41.04 135 39 C134.505 38.01 134.505 38.01 134 37 C133.08476562 37.433125 132.16953125 37.86625 131.2265625 38.3125 C130.03804688 38.869375 128.84953125 39.42625 127.625 40 C126.44164063 40.556875 125.25828125 41.11375 124.0390625 41.6875 C121 43 121 43 119 43 C117.77934444 41.37245925 116.62423979 39.69557477 115.5 38 C106.9870691 26.09412357 94.42270707 18.61405258 80 16 C60.48353462 13.95974553 42.95456524 19.49572095 29.125 33.5625 Z " fill="#FEFEFE" transform="translate(0,0)"/>
<path d="M0 0 C3.23726107 3.19431234 6.22038089 6.39679004 9 10 C8.71125 10.556875 8.4225 11.11375 8.125 11.6875 C7.568125 12.8321875 7.568125 12.8321875 7 14 C6.608125 14.763125 6.21625 15.52625 5.8125 16.3125 C4.75608742 19.80678776 5.30536842 22.45737895 6 26 C7.98 26.495 7.98 26.495 10 27 C12.80963847 22.84173507 13.07135208 20.29516015 12.3125 15.5 C11.65260417 10.56424851 11.65260417 10.56424851 13.2578125 7.95703125 C14.9375 6.3125 14.9375 6.3125 18 4 C19.890625 4.66015625 19.890625 4.66015625 22 6 C26.79828503 17.15422228 26.01490131 29.7792497 22 41 C16.01535269 53.19285903 7.03568697 62.01163109 -5.578125 67.22265625 C-18.92986643 71.50813455 -32.62029082 70.66675186 -45.171875 64.421875 C-53.9072754 59.06480625 -62.31208297 51.87303348 -66 42 C-65.01924028 38.93004797 -63.07828352 36.68159171 -61 34.25 C-60.484375 33.63640625 -59.96875 33.0228125 -59.4375 32.390625 C-58 31 -58 31 -56 31 C-55.34 34.96 -54.68 38.92 -54 43 C-47.8859313 41.47148282 -45.50995733 37.02959403 -42 32 C-39.85684437 28.40094539 -37.87875149 24.74327002 -36 21 C-35.34 21.33 -34.68 21.66 -34 22 C-33.19954337 24.69058598 -32.5045341 27.33218727 -31.875 30.0625 C-31.69324219 30.82111328 -31.51148438 31.57972656 -31.32421875 32.36132812 C-30.87543416 34.23913735 -30.43676664 36.11935915 -30 38 C-29.85304688 36.87464844 -29.85304688 36.87464844 -29.703125 35.7265625 C-28.55942468 27.89813098 -26.53688417 21.07376834 -23 14 C-22.34 14 -21.68 14 -21 14 C-18.69 19.28 -16.38 24.56 -14 30 C-13.01 30 -12.02 30 -11 30 C-6.53733159 20.18519662 -3.03446348 10.33865875 0 0 Z " fill="#FDFDFD" transform="translate(93,47)"/>
<path d="M0 0 C6.40429115 4.78551297 10.94578898 10.13168956 15 17 C20.44876003 15.27933894 25.71169451 13.15294651 31 11 C31 11.66 31 12.32 31 13 C26.71 14.98 22.42 16.96 18 19 C18.6724723 23.03483381 19.34786544 26.26603353 20.5625 30.0625 C24.47052858 44.16205408 21.45470532 58.17900997 15 71 C13.17597651 73.83684887 11.16829048 76.42134252 9 79 C8.10087891 80.20849609 8.10087891 80.20849609 7.18359375 81.44140625 C-0.44681427 90.38222423 -12.89770478 97.06785819 -24.55566406 98.26171875 C-43.16883562 99.4451772 -57.646702 95.98503207 -72.1875 83.875 C-77.45654147 79.0055067 -80.75748881 73.34544408 -84 67 C-84.81404297 67.34224609 -84.81404297 67.34224609 -85.64453125 67.69140625 C-86.71767578 68.12259766 -86.71767578 68.12259766 -87.8125 68.5625 C-88.52019531 68.85253906 -89.22789063 69.14257812 -89.95703125 69.44140625 C-92 70 -92 70 -95 69 C-92.03 67.35 -89.06 65.7 -86 64 C-86.32355469 62.73027344 -86.64710937 61.46054688 -86.98046875 60.15234375 C-88.13739413 54.92214087 -88.33203586 49.90360328 -88.3125 44.5625 C-88.32861328 43.68529297 -88.34472656 42.80808594 -88.36132812 41.90429688 C-88.37211359 27.26842563 -81.80167084 15.01791045 -71.82421875 4.578125 C-51.40356418 -14.06313643 -22.66646628 -14.93847778 0 0 Z M-71.2109375 15.46484375 C-77.87507852 24.90813528 -80.17883647 33.18542478 -80.1875 44.5 C-80.19974609 45.34175781 -80.21199219 46.18351562 -80.22460938 47.05078125 C-80.23508314 51.48467541 -80.08969418 54.96928554 -78 59 C-73.46461278 55.31418099 -69.67445839 51.53903683 -66 47 C-65.67 47 -65.34 47 -65 47 C-64.67 51.62 -64.34 56.24 -64 61 C-63.01 61 -62.02 61 -61 61 C-54.66173628 54.66173628 -48.2743372 46.03620921 -47 37 C-46.34 37 -45.68 37 -45 37 C-43.099631 45.30258303 -43.099631 45.30258303 -42.5 49.5 C-42.335 50.325 -42.17 51.15 -42 52 C-41.01 52.495 -41.01 52.495 -40 53 C-40.33 54.98 -40.66 56.96 -41 59 C-41.39832031 57.28490234 -41.39832031 57.28490234 -41.8046875 55.53515625 C-42.16102453 54.04416709 -42.51781904 52.55328721 -42.875 51.0625 C-43.04902344 50.30775391 -43.22304688 49.55300781 -43.40234375 48.77539062 C-43.87244065 46.83406455 -44.4304297 44.91450456 -45 43 C-45.99 42.505 -45.99 42.505 -47 42 C-47.3403125 42.67804688 -47.680625 43.35609375 -48.03125 44.0546875 C-51.5900099 50.8882637 -55.46789678 57.5574855 -61 63 C-62.98 63.495 -62.98 63.495 -65 64 C-65.66 60.04 -66.32 56.08 -67 52 C-71.54505502 54.27252751 -74.41556802 56.6092446 -77 61 C-76.529631 68.21232464 -69.26458792 75.02305608 -64.1875 79.75 C-54.52911914 87.75848471 -42.91707577 91.45642759 -30.4375 90.9375 C-19.70151929 89.90667039 -11.60443898 86.36588575 -3 80 C-2.13375 79.4225 -1.2675 78.845 -0.375 78.25 C8.11242952 70.2092773 13.2465694 59.17156868 14.203125 47.52734375 C14.32947187 40.54667892 13.78782225 33.48064649 11 27 C9.00210046 25.61850204 9.00210046 25.61850204 7 25 C3.53301047 27.61524727 3.53301047 27.61524727 1 31 C0.92294625 33.88951579 1.31430221 36.51138809 1.765625 39.36328125 C2.08264967 42.92980879 0.97376291 45.0788309 -1 48 C-2.98 47.505 -2.98 47.505 -5 47 C-6.22268007 41.44236332 -5.73361684 38.92051032 -3 34 C-3 29.40848794 -3.68502926 28.66817876 -6.5 25.25 C-7.1496875 24.45078125 -7.799375 23.6515625 -8.46875 22.828125 C-8.9740625 22.22484375 -9.479375 21.6215625 -10 21 C-10.66 22.32 -11.32 23.64 -12 25 C-12 24.34 -12 23.68 -12 23 C-12.32033957 20.99787771 -12.65259077 18.99760305 -13 17 C-6.73321216 19.29272726 -3.78134731 23.66360157 0 29 C2.64 27.02 5.28 25.04 8 23 C4.50050037 13.07604584 -3.87145298 6.64244947 -13 2 C-33.67388753 -7.11052671 -56.6328947 -2.02280842 -71.2109375 15.46484375 Z " fill="#6BBE46" transform="translate(104,26)"/>
<path d="M0 0 C6.40429115 4.78551297 10.94578898 10.13168956 15 17 C12.75 19.0625 12.75 19.0625 10 21 C8.0234375 20.87890625 8.0234375 20.87890625 6 20 C4.4296875 18.1796875 4.4296875 18.1796875 2.875 15.875 C-3.541217 7.28819044 -11.8763512 3.00798511 -22 0 C-22.59941406 -0.19207031 -23.19882813 -0.38414063 -23.81640625 -0.58203125 C-38.1523112 -3.32611324 -50.54789902 0.05854372 -62.49609375 8.09765625 C-70.42613778 14.1225103 -75.8847773 22.68485482 -78.65625 32.26953125 C-79.16968774 36.34786059 -79.1438644 40.39384879 -79.125 44.5 C-79.12886719 45.34175781 -79.13273437 46.18351562 -79.13671875 47.05078125 C-79.1302433 51.16268987 -79.03531987 54.99018972 -78 59 C-80.31 60.32 -82.62 61.64 -85 63 C-87.78613401 56.67591804 -88.46467253 51.49989385 -88.375 44.625 C-88.38660156 43.74328125 -88.39820312 42.8615625 -88.41015625 41.953125 C-88.34569184 27.29821595 -81.82261729 15.03982751 -71.82421875 4.578125 C-51.40356418 -14.06313643 -22.66646628 -14.93847778 0 0 Z " fill="#F6921D" transform="translate(104,26)"/>
<path d="M0 0 C0.495 0.99 0.495 0.99 1 2 C-0.05058594 2.50789063 -1.10117188 3.01578125 -2.18359375 3.5390625 C-9.78311543 7.25012001 -17.19872841 10.92233834 -24 16 C-24.86625 16.556875 -25.7325 17.11375 -26.625 17.6875 C-28.71548682 21.20331875 -27.69758407 24.34395013 -27.1796875 28.296875 C-26.93477632 31.98119094 -27.7746135 34.08397631 -30 37 C-32.1875 37.875 -32.1875 37.875 -34 38 C-35.91406444 36.16249814 -36.96584146 34.7937794 -37.08203125 32.09375 C-36.74538606 28.68918731 -36.43403263 26.56263489 -34.3125 23.8125 C-33.6628125 22.9153125 -33.6628125 22.9153125 -33 22 C-33.95933546 17.44315656 -36.99366295 14.40190771 -40 11 C-40.99 13.97 -41.98 16.94 -43 20 C-43.91933305 16.32266781 -43.99485581 14.40100462 -43.5625 10.75 C-43.46066406 9.85796875 -43.35882813 8.9659375 -43.25390625 8.046875 C-43.17011719 7.37140625 -43.08632812 6.6959375 -43 6 C-39.53375469 6.28531266 -38.23725656 6.75777471 -35.76171875 9.28515625 C-35.07722656 10.20167969 -34.39273438 11.11820313 -33.6875 12.0625 C-32.99011719 12.98160156 -32.29273437 13.90070312 -31.57421875 14.84765625 C-31.05472656 15.55792969 -30.53523438 16.26820312 -30 17 C-28.9275 16.2575 -27.855 15.515 -26.75 14.75 C-26.14671875 14.33234375 -25.5434375 13.9146875 -24.921875 13.484375 C-22.91325102 12.01646234 -22.91325102 12.01646234 -21.12890625 9.98828125 C-18.62737607 7.65198976 -16.36928462 6.6750876 -13.1875 5.4375 C-12.13433594 5.01984375 -11.08117187 4.6021875 -9.99609375 4.171875 C-9.00738281 3.78515625 -8.01867187 3.3984375 -7 3 C-5.58039488 2.40277047 -4.163038 1.80010543 -2.75 1.1875 C-1.8425 0.795625 -0.935 0.40375 0 0 Z " fill="#404545" transform="translate(134,37)"/>
<path d="M0 0 C0.66 0 1.32 0 2 0 C3.905247 5.10334017 5.42589023 9.46342706 5 15 C5.66 15 6.32 15 7 15 C7 13.35 7 11.7 7 10 C7.33 10 7.66 10 8 10 C7.88652381 11.97986082 7.7589065 13.95891598 7.625 15.9375 C7.55539063 17.03964844 7.48578125 18.14179687 7.4140625 19.27734375 C7.27742188 20.17582031 7.14078125 21.07429688 7 22 C6.01 22.495 6.01 22.495 5 23 C3.68 17.39 2.36 11.78 1 6 C-0.340625 8.145 -1.68125 10.29 -3.0625 12.5 C-6.61126645 18.09723084 -10.38209474 23.21876047 -15 28 C-16.32 27.67 -17.64 27.34 -19 27 C-20.3271261 23.0186217 -20.06915913 19.14954773 -20 15 C-20.639375 15.66 -21.27875 16.32 -21.9375 17 C-22.95507108 18.00331939 -23.97643152 19.00279979 -25 20 C-25.64324219 20.639375 -26.28648438 21.27875 -26.94921875 21.9375 C-32.29804465 27.00784125 -37.86861844 30.86058553 -45 33 C-45.99 32.67 -46.98 32.34 -48 32 C-47.39414062 31.64808594 -46.78828125 31.29617187 -46.1640625 30.93359375 C-35.55372326 24.6816554 -26.93749275 18.52882584 -19 9 C-18.34 9.33 -17.68 9.66 -17 10 C-16.5859375 13.16015625 -16.5859375 13.16015625 -16.375 17.0625 C-16.30023438 18.35285156 -16.22546875 19.64320312 -16.1484375 20.97265625 C-16.09945312 21.97167969 -16.05046875 22.97070312 -16 24 C-11.86657291 21.04035099 -9.48089124 18.03576166 -6.875 13.6875 C-6.21242187 12.59824219 -5.54984375 11.50898437 -4.8671875 10.38671875 C-2.98637362 6.97528437 -1.47007247 3.60213411 0 0 Z " fill="#454A4B" transform="translate(57,63)"/>
<path d="M0 0 C0.99 0.99 1.98 1.98 3 3 C3.66 2.34 4.32 1.68 5 1 C4.40546697 10.59453303 4.40546697 10.59453303 1 14 C-0.875 13.75 -0.875 13.75 -3 13 C-4.28125 11.25 -4.28125 11.25 -5 9 C-4.1015625 6.640625 -4.1015625 6.640625 -2.625 4.25 C-2.14289063 3.45078125 -1.66078125 2.6515625 -1.1640625 1.828125 C-0.77992187 1.22484375 -0.39578125 0.6215625 0 0 Z " fill="#4B4F50" transform="translate(102,61)"/>
<path d="M0 0 C0.66 0 1.32 0 2 0 C2.24234375 0.80824219 2.4846875 1.61648437 2.734375 2.44921875 C5.13428895 10.38866899 5.13428895 10.38866899 10 17 C10.99 15.02 11.98 13.04 13 11 C14 14 14 14 13.00390625 16.04296875 C12.52824219 16.75066406 12.05257812 17.45835938 11.5625 18.1875 C11.08941406 18.90292969 10.61632812 19.61835937 10.12890625 20.35546875 C9.75636719 20.89816406 9.38382813 21.44085938 9 22 C5.55672959 18.95403002 3.94337402 16.12934091 2.25 11.875 C1.82203125 10.82054688 1.3940625 9.76609375 0.953125 8.6796875 C0 6 0 6 0 4 C-0.66 4 -1.32 4 -2 4 C-2.33 4.99 -2.66 5.98 -3 7 C-3.33 6.34 -3.66 5.68 -4 5 C-2.71937515 3.2925002 -1.38232443 1.62626404 0 0 Z " fill="#424647" transform="translate(72,57)"/>
<path d="M0 0 C2.625 0.375 2.625 0.375 5 1 C5.04254356 2.99954746 5.04080783 5.00041636 5 7 C4 8 4 8 1.5625 8.1875 C-1 8 -1 8 -3 6 C-2.63318342 3.06546739 -2.13562754 2.13562754 0 0 Z " fill="#F7931C" transform="translate(39,51)"/>
<path d="M0 0 C-1.24731016 3.74193048 -2.40133621 4.12562494 -5.75 6.0625 C-6.61109375 6.56910156 -7.4721875 7.07570313 -8.359375 7.59765625 C-10.88737021 8.94018625 -13.27229304 10.12839827 -16 11 C-16.99 10.67 -17.98 10.34 -19 10 C-18.34773438 9.61328125 -17.69546875 9.2265625 -17.0234375 8.828125 C-11.20033587 5.37107103 -11.20033587 5.37107103 -5.5625 1.625 C-3 0 -3 0 0 0 Z " fill="#404644" transform="translate(28,85)"/>
<path d="M0 0 C0.66 0.33 1.32 0.66 2 1 C2 5.29 2 9.58 2 14 C1.67 14 1.34 14 1 14 C0.67 11.36 0.34 8.72 0 6 C-3.98381075 8.16264012 -6.88983545 10.71211176 -10 14 C-10 9.84439769 -7.7179548 8.15900671 -5 5.3125 C-4.52304687 4.80138672 -4.04609375 4.29027344 -3.5546875 3.76367188 C-2.37640085 2.50290516 -1.18904747 1.25062314 0 0 Z " fill="#5A5E5E" transform="translate(38,72)"/>
<path d="M0 0 C0.33 0 0.66 0 1 0 C1.02578125 0.61488281 1.0515625 1.22976562 1.078125 1.86328125 C1.2814648 6.99254591 1.2814648 6.99254591 4.0625 11.0625 C4.701875 11.371875 5.34125 11.68125 6 12 C5.34 12.66 4.68 13.32 4 14 C1.875 13.625 1.875 13.625 0 13 C-1.33106125 9.00681626 -1.13647721 5.16255487 -1 1 C-0.67 0.67 -0.34 0.34 0 0 Z " fill="#3D4142" transform="translate(38,77)"/>
<path d="M0 0 C0.66 0.33 1.32 0.66 2 1 C2 2.98 2 4.96 2 7 C0.02 7.99 0.02 7.99 -2 9 C-2.25 3.375 -2.25 3.375 0 0 Z " fill="#FAFBFB" transform="translate(102,61)"/>
<path d="M0 0 C0.66 0 1.32 0 2 0 C2.6875 1.8125 2.6875 1.8125 3 4 C1.5625 5.75 1.5625 5.75 0 7 C-0.66 6.34 -1.32 5.68 -2 5 C-1.34 3.35 -0.68 1.7 0 0 Z " fill="#525657" transform="translate(57,63)"/>
</svg>
