<?xml version="1.0" encoding="UTF-8"?>
<svg version="1.1" xmlns="http://www.w3.org/2000/svg" width="130" height="129">
<path d="M0 0 C42.9 0 85.8 0 130 0 C130 42.57 130 85.14 130 129 C87.1 129 44.2 129 0 129 C0 86.43 0 43.86 0 0 Z " fill="#6ABE45" transform="translate(0,0)"/>
<path d="M0 0 C42.9 0 85.8 0 130 0 C130 42.57 130 85.14 130 129 C87.1 129 44.2 129 0 129 C0 86.43 0 43.86 0 0 Z M20 35 C14.73411511 42.13442468 10.85640026 49.31012637 9 58 C8.773125 58.94875 8.54625 59.8975 8.3125 60.875 C7.29426543 71.05734566 8.53646746 80.08721429 11 90 C10.05898437 90.30679688 9.11796875 90.61359375 8.1484375 90.9296875 C5.60635319 91.79387001 3.35479149 92.73203535 1 94 C1 94.66 1 95.32 1 96 C5.11574371 95.5251065 8.36383344 94.9789756 12 93 C12.53367187 93.83402344 13.06734375 94.66804688 13.6171875 95.52734375 C22.73746653 109.45159228 34.12923639 119.79870236 50.80810547 123.62719727 C67.19842651 126.41490279 82.64621231 124.04398326 96.32202148 114.56054688 C108.42514412 105.55848621 116.26191935 92.52525227 118.71484375 77.6171875 C119.73242362 68.27775584 119.03665557 60.65852206 115.875 51.77734375 C115 49 115 49 115 45 C119.29 43.02 123.58 41.04 128 39 C127.505 37.515 127.505 37.515 127 36 C121.72 38.31 116.44 40.62 111 43 C110.01 40.525 110.01 40.525 109 38 C100.48939088 26.19361579 88.13395172 19.06375106 74 16 C52.74173699 14.27042524 34.77853889 18.84727397 20 35 Z " fill="#FEFEFD" transform="translate(0,0)"/>
<path d="M0 0 C6.85391171 6.84265734 6.85391171 6.84265734 8 9 C7.25 11.625 7.25 11.625 6 14 C4.82326802 16.35346396 4.83376134 17.8806033 4.8125 20.5 C4.79832031 21.2940625 4.78414063 22.088125 4.76953125 22.90625 C4.80333697 25.22033317 4.80333697 25.22033317 7 27 C9.06599083 27.06754834 9.06599083 27.06754834 11 26 C13.02614724 22.16382789 13.03653015 19.76328603 12.25 15.5625 C11.63815098 10.58702442 11.63815098 10.58702442 13.26171875 7.953125 C14.9375 6.3125 14.9375 6.3125 18 4 C18.99 4.33 19.98 4.66 21 5 C25.52647047 14.220588 25.43026978 25.78229944 23.15625 35.66796875 C18.02605527 50.17463427 9.06653031 59.19474361 -4.41015625 65.921875 C-14.62695659 70.17502265 -27.42105362 71.00206733 -38 67.375 C-39.69066962 66.6359803 -41.35917655 65.84392671 -43 65 C-43.87140625 64.55269531 -44.7428125 64.10539062 -45.640625 63.64453125 C-54.42230848 58.74098643 -62.38972049 51.66518774 -66 42 C-65.01393614 38.87648034 -63.02526138 36.68073026 -60.875 34.25 C-60.33617187 33.63640625 -59.79734375 33.0228125 -59.2421875 32.390625 C-58.83226562 31.93171875 -58.42234375 31.4728125 -58 31 C-55.90029019 34.9171057 -55.00665438 38.68576696 -54 43 C-48.90930144 42.34386552 -47.00525917 38.76571039 -44.0390625 34.921875 C-40.94793817 30.4924478 -38.42028798 25.82224044 -36 21 C-34.03470991 24.45207476 -33.2253523 27.88476226 -32.375 31.75 C-32.11460938 32.92046875 -31.85421875 34.0909375 -31.5859375 35.296875 C-31.39257812 36.18890625 -31.19921875 37.0809375 -31 38 C-30.67 38 -30.34 38 -30 38 C-29.82984375 36.9378125 -29.6596875 35.875625 -29.484375 34.78125 C-28.21205392 27.23470086 -27.01341846 20.64289952 -23 14 C-22.34 14 -21.68 14 -21 14 C-20.60167969 15.05960938 -20.20335937 16.11921875 -19.79296875 17.2109375 C-19.25831812 18.59915317 -18.72313399 19.98716346 -18.1875 21.375 C-17.92646484 22.07367188 -17.66542969 22.77234375 -17.39648438 23.4921875 C-15.98168239 27.12525926 -15.32297203 28.78468531 -12 31 C-6.36317251 21.36284332 -3.36733865 10.5763918 0 0 Z " fill="#FCFDFC" transform="translate(86,47)"/>
<path d="M0 0 C1.36888388 1.00101198 2.72461711 2.02041678 4.0625 3.0625 C4.90748047 3.68125 4.90748047 3.68125 5.76953125 4.3125 C9.77258908 7.39333438 12.3963912 10.82809191 15.0625 15.0625 C15.0625 16.0525 15.0625 17.0425 15.0625 18.0625 C12.25 20.8125 12.25 20.8125 9.0625 23.0625 C4.80435431 21.6431181 3.4354291 18.75452422 0.87890625 15.19140625 C-0.98561971 13.00610162 -2.37401042 12.2405706 -4.9375 11.0625 C-4.83308594 12.96902344 -4.83308594 12.96902344 -4.7265625 14.9140625 C-4.72876786 20.54434435 -6.3504803 25.21323326 -8.3125 30.4375 C-8.62960938 31.32566406 -8.94671875 32.21382812 -9.2734375 33.12890625 C-10.59445047 36.76719613 -11.77833734 39.82375602 -13.9375 43.0625 C-14.5975 43.0625 -15.2575 43.0625 -15.9375 43.0625 C-16.95251998 41.19558826 -17.94892079 39.31854656 -18.9375 37.4375 C-19.7728125 35.87128906 -19.7728125 35.87128906 -20.625 34.2734375 C-21.9953255 30.92103405 -22.1955505 28.64295064 -21.9375 25.0625 C-23.90506452 25.09372943 -23.90506452 25.09372943 -25.9375 26.0625 C-27.0927144 28.77388905 -27.0927144 28.77388905 -27.9375 32.0625 C-28.4325 33.17625 -28.9275 34.29 -29.4375 35.4375 C-31.04043622 39.31126253 -32.0070469 42.98282102 -32.9375 47.0625 C-34.66919596 43.9002726 -35.6503976 40.79507278 -36.5625 37.3125 C-36.82289062 36.32765625 -37.08328125 35.3428125 -37.3515625 34.328125 C-37.54492188 33.58046875 -37.73828125 32.8328125 -37.9375 32.0625 C-40.28774879 34.41274879 -41.22090406 36.6129257 -42.625 39.625 C-45.40460459 45.27958778 -48.50015538 50.53920198 -52.9375 55.0625 C-54.4225 55.5575 -54.4225 55.5575 -55.9375 56.0625 C-56.4325 48.6375 -56.4325 48.6375 -56.9375 41.0625 C-57.5975 41.0625 -58.2575 41.0625 -58.9375 41.0625 C-60.38454725 42.71672322 -60.38454725 42.71672322 -61.8125 44.8125 C-63.99716715 47.81774945 -66.09961054 50.63002332 -68.9375 53.0625 C-69.5975 53.0625 -70.2575 53.0625 -70.9375 53.0625 C-74.13306631 41.66668789 -72.92723877 27.69598393 -67.49609375 17.3046875 C-60.40512227 5.22864791 -50.12786144 -2.02542242 -37.015625 -6.609375 C-24.19210578 -8.63414119 -11.03159154 -7.10353731 0 0 Z " fill="#FDFCFC" transform="translate(88.9375,30.9375)"/>
<path d="M0 0 C8.40298495 5.44284253 14.6570057 11.62186848 19.75 20.25 C17.06158141 22.50245881 15.10358125 24.13213958 11.75 25.25 C11.05777344 24.18072266 11.05777344 24.18072266 10.3515625 23.08984375 C3.07567274 12.40607677 -4.90810473 6.9170807 -17.25 3.25 C-17.84941406 3.05792969 -18.44882813 2.86585937 -19.06640625 2.66796875 C-33.4023112 -0.07611324 -45.79789902 3.30854372 -57.74609375 11.34765625 C-65.67613778 17.3725103 -71.1347773 25.93485482 -73.90625 35.51953125 C-74.41968774 39.59786059 -74.3938644 43.64384879 -74.375 47.75 C-74.37886719 48.59175781 -74.38273437 49.43351562 -74.38671875 50.30078125 C-74.3802433 54.41268987 -74.28531987 58.24018972 -73.25 62.25 C-79 66.25 -79 66.25 -81.25 66.25 C-85.75648094 49.61893939 -85.39512538 34.63158229 -77.1015625 19.16796875 C-68.5198669 5.643651 -56.55467267 -1.97077729 -41.38232422 -6.28051758 C-27.50972197 -9.33490436 -12.24419838 -6.84179635 0 0 Z " fill="#F6921D" transform="translate(92.25,22.75)"/>
<path d="M0 0 C0.495 1.485 0.495 1.485 1 3 C-0.57587891 3.76183594 -0.57587891 3.76183594 -2.18359375 4.5390625 C-9.78311543 8.25012001 -17.19872841 11.92233834 -24 17 C-24.86625 17.556875 -25.7325 18.11375 -26.625 18.6875 C-28.71548682 22.20331875 -27.69758407 25.34395013 -27.1796875 29.296875 C-26.93477632 32.98119094 -27.7746135 35.08397631 -30 38 C-32 39.0625 -32 39.0625 -34 39 C-36.06784318 37.41129121 -36.90404593 36.5023478 -37.3984375 33.9140625 C-37.34687214 28.87784609 -36.65468234 26.34402565 -34 22 C-34.9281803 17.87475422 -37.37164572 15.22497457 -40 12 C-40.25168945 12.72590332 -40.50337891 13.45180664 -40.76269531 14.19970703 C-41.9164203 17.51124671 -43.08307094 20.81809132 -44.25 24.125 C-44.64574219 25.26710938 -45.04148437 26.40921875 -45.44921875 27.5859375 C-47.44925757 33.22539122 -49.317977 38.25390613 -53 43 C-57.97561882 38.85365098 -60.12934141 34.16585791 -62 28 C-62 27.01 -62 26.02 -62 25 C-62.66 25 -63.32 25 -64 25 C-67.224141 32.6206969 -69.0670067 40.78965896 -70 49 C-70.99 49 -71.98 49 -73 49 C-74.32 44.05 -75.64 39.1 -77 34 C-77.99 35.794375 -78.98 37.58875 -80 39.4375 C-83.39390438 45.28834129 -87.29607423 50.16167635 -92 55 C-93.32 54.67 -94.64 54.34 -96 54 C-96.99 50.37 -97.98 46.74 -99 43 C-100.670625 45.041875 -100.670625 45.041875 -102.375 47.125 C-107.7782547 53.21925708 -114.29153731 57.35674724 -122 60 C-123.32 60 -124.64 60 -126 60 C-126 59.34 -126 58.68 -126 58 C-124.865625 57.443125 -123.73125 56.88625 -122.5625 56.3125 C-111.73359657 50.87343987 -103.36341167 45.60568611 -97 35 C-95.515 35.495 -95.515 35.495 -94 36 C-94 40.95 -94 45.9 -94 51 C-89.56246897 47.44997518 -87.73285418 45.44041536 -84.9375 40.75 C-84.59460938 40.17805908 -84.25171875 39.60611816 -83.8984375 39.0168457 C-81.3803521 34.77236382 -79.10045264 30.46346187 -77 26 C-76.34 26.33 -75.68 26.66 -75 27 C-74.18359375 29.46875 -74.18359375 29.46875 -73.4375 32.5 C-72.79159388 36.04788817 -72.79159388 36.04788817 -71 39 C-70.82984375 38.3709375 -70.6596875 37.741875 -70.484375 37.09375 C-67.03632472 24.91552986 -67.03632472 24.91552986 -64 21 C-61.87109375 20.28515625 -61.87109375 20.28515625 -60 20 C-59.62875 21.7325 -59.62875 21.7325 -59.25 23.5 C-58.28186435 27.44269737 -56.74415127 30.78261337 -54.8046875 34.3359375 C-54 36 -54 36 -54 38 C-50.07544388 34.52822418 -49.03360107 30.21727176 -47.375 25.375 C-46.90707031 24.07755859 -46.90707031 24.07755859 -46.4296875 22.75390625 C-44.47158343 17.12435705 -43.44614952 11.94464089 -43 6 C-38.71866696 7.34577308 -36.81390203 9.02013447 -34.1875 12.625 C-33.58292969 13.44226562 -32.97835937 14.25953125 -32.35546875 15.1015625 C-31.90816406 15.72804688 -31.46085937 16.35453125 -31 17 C-27.96261092 15.59392775 -25.47131082 13.89851974 -22.8125 11.875 C-15.76866061 6.84368615 -7.87151328 3.51569909 0 0 Z " fill="#424647" transform="translate(127,36)"/>
<path d="M0 0 C0.495 1.485 0.495 1.485 1 3 C-0.05058594 3.50789063 -1.10117188 4.01578125 -2.18359375 4.5390625 C-9.78311543 8.25012001 -17.19872841 11.92233834 -24 17 C-24.86625 17.556875 -25.7325 18.11375 -26.625 18.6875 C-28.71548682 22.20331875 -27.69758407 25.34395013 -27.1796875 29.296875 C-26.93477632 32.98119094 -27.7746135 35.08397631 -30 38 C-32 39.0625 -32 39.0625 -34 39 C-36.06784318 37.41129121 -36.90404593 36.5023478 -37.3984375 33.9140625 C-37.34687214 28.87784609 -36.65468234 26.34402565 -34 22 C-34.92148907 17.90449301 -37.30336928 15.14606917 -40 12 C-40.99 14.64 -41.98 17.28 -43 20 C-43.33 20 -43.66 20 -44 20 C-43.67 15.38 -43.34 10.76 -43 6 C-38.06757198 7.97297121 -37.11326625 8.60924241 -34.1875 12.625 C-33.58292969 13.44226562 -32.97835937 14.25953125 -32.35546875 15.1015625 C-31.90816406 15.72804688 -31.46085937 16.35453125 -31 17 C-27.96261092 15.59392775 -25.47131082 13.89851974 -22.8125 11.875 C-15.76866061 6.84368615 -7.87151328 3.51569909 0 0 Z " fill="#404445" transform="translate(127,36)"/>
<path d="M0 0 C0.99 0.33 1.98 0.66 3 1 C3 5.62 3 10.24 3 15 C2.67 15 2.34 15 2 15 C1.67 12.36 1.34 9.72 1 7 C0.34 8.32 -0.32 9.64 -1 11 C-1.33 10.01 -1.66 9.02 -2 8 C-2.46148438 8.58007812 -2.92296875 9.16015625 -3.3984375 9.7578125 C-9.39932396 16.94464491 -16.08572789 21.94327192 -25 25 C-26.32 25 -27.64 25 -29 25 C-29 24.34 -29 23.68 -29 23 C-27.865625 22.443125 -26.73125 21.88625 -25.5625 21.3125 C-14.73359657 15.87343987 -6.36341167 10.60568611 0 0 Z " fill="#414746" transform="translate(30,71)"/>
<path d="M0 0 C0.66 0.33 1.32 0.66 2 1 C2.625 3.0625 2.625 3.0625 3 5 C3.66 4.01 4.32 3.02 5 2 C4.28571429 10.57142857 4.28571429 10.57142857 1 14 C-0.875 13.6875 -0.875 13.6875 -3 13 C-5 10 -5 10 -4.86328125 7.7734375 C-4.68152344 6.98195313 -4.49976562 6.19046875 -4.3125 5.375 C-4.14363281 4.57835938 -3.97476563 3.78171875 -3.80078125 2.9609375 C-3.53652344 2.31382813 -3.27226563 1.66671875 -3 1 C-2.01 0.67 -1.02 0.34 0 0 Z " fill="#4E5253" transform="translate(95,61)"/>
<path d="M0 0 C0.66 0 1.32 0 2 0 C1.3928642 3.64281481 -0.14230634 5.77151599 -2.4375 8.625 C-3.05496094 9.40101562 -3.67242187 10.17703125 -4.30859375 10.9765625 C-6 13 -6 13 -8 15 C-10.0625 14.8125 -10.0625 14.8125 -12 14 C-12.96070434 11.11788698 -13.10581883 9.30149956 -13.0625 6.3125 C-13.05347656 5.50425781 -13.04445313 4.69601563 -13.03515625 3.86328125 C-13.02355469 3.24839844 -13.01195313 2.63351563 -13 2 C-12.34 1.67 -11.68 1.34 -11 1 C-10.67 3.97 -10.34 6.94 -10 10 C-6.09398874 8.04699437 -5.20260955 7.27501604 -2.875 3.875 C-1.3671875 1.6796875 -1.3671875 1.6796875 0 0 Z " fill="#3D4243" transform="translate(43,76)"/>
<path d="M0 0 C2 1 2 1 2.6328125 2.84765625 C2.87644531 3.94400391 2.87644531 3.94400391 3.125 5.0625 C3.29257812 5.79597656 3.46015625 6.52945313 3.6328125 7.28515625 C3.75398438 7.85105469 3.87515625 8.41695312 4 9 C3.01 9.33 2.02 9.66 1 10 C0.67 9.34 0.34 8.68 0 8 C-1.32 10.31 -2.64 12.62 -4 15 C-4.99 14.34 -5.98 13.68 -7 13 C-3.535 6.565 -3.535 6.565 0 0 Z " fill="#484C4D" transform="translate(50,62)"/>
<path d="M0 0 C2.5 0.125 2.5 0.125 3.5 1.125 C3.625 4.125 3.625 4.125 3.5 7.125 C2.5 8.125 2.5 8.125 0.0625 8.3125 C-2.5 8.125 -2.5 8.125 -4.5 6.125 C-3.77607362 0.18880368 -3.77607362 0.18880368 0 0 Z " fill="#F69015" transform="translate(33.5,50.875)"/>
<path d="M0 0 C0.99 0.33 1.98 0.66 3 1 C3 5.62 3 10.24 3 15 C2.67 15 2.34 15 2 15 C1.67 12.36 1.34 9.72 1 7 C0.34 8.32 -0.32 9.64 -1 11 C-2.1875 7.75 -2.1875 7.75 -3 4 C-1.625 1.5625 -1.625 1.5625 0 0 Z " fill="#686B6C" transform="translate(30,71)"/>
<path d="M0 0 C0.66 0 1.32 0 2 0 C1.39305845 3.15330554 0.3583335 5.18888867 -1.5625 7.75 C-2.24505859 8.67039062 -2.24505859 8.67039062 -2.94140625 9.609375 C-3.46541016 10.29773438 -3.46541016 10.29773438 -4 11 C-4.99 10.34 -5.98 9.68 -7 9 C-5.88266271 7.49428343 -4.75589965 5.99555708 -3.625 4.5 C-2.99851562 3.6646875 -2.37203125 2.829375 -1.7265625 1.96875 C-1.15679687 1.3190625 -0.58703125 0.669375 0 0 Z " fill="#424647" transform="translate(43,76)"/>
<path d="M0 0 C0.33 1.32 0.66 2.64 1 4 C-1.31 4.33 -3.62 4.66 -6 5 C-6 4.34 -6 3.68 -6 3 C-4.02 2.01 -2.04 1.02 0 0 Z " fill="#464A4B" transform="translate(7,91)"/>
<path d="M0 0 C0.33 0 0.66 0 1 0 C1.1875 3.375 1.1875 3.375 1 7 C0.01 7.66 -0.98 8.32 -2 9 C-2.25 3.375 -2.25 3.375 0 0 Z " fill="#F8F9F9" transform="translate(95,61)"/>
<path d="M0 0 C0.66 0 1.32 0 2 0 C1.25 1.9375 1.25 1.9375 0 4 C-2.125 4.75 -2.125 4.75 -4 5 C-4 4.01 -4 3.02 -4 2 C-2.68 2 -1.36 2 0 2 C0 1.34 0 0.68 0 0 Z " fill="#373B3C" transform="translate(36,86)"/>
<path d="M0 0 C1.9451 2.91765 2.45276317 4.62537285 3 8 C2.01 8.33 1.02 8.66 0 9 C-0.84454356 5.62182575 -1.10844919 3.32534757 0 0 Z " fill="#545758" transform="translate(51,63)"/>
</svg>
